<?xml version="1.0" encoding="utf-8" ?>
<svg xmlns="http://www.w3.org/2000/svg" xmlns:ev="http://www.w3.org/2001/xml-events" xmlns:xlink="http://www.w3.org/1999/xlink" baseProfile="full" height="100%" id="l-tiny" version="1.1" viewBox="-80.0,-137.97958971132712,480.0,226.9693845669907" width="100%">
  <defs/>
  <style type="text/css"><![CDATA[
svg {
    background-color: None;;
}
.grid-major {
    stroke-width:1.5;
}
.grid-minor {
    stroke-width:.5;
}
.hidden {
    display: none;
}
.tile {
    stroke: black;
    stroke-width: 0.5;
}
    svg {
  background-color: #fff;
}
/* Defaults for all tiles */
.tile {
  stroke: black;
  stroke-width: 0.5;
}
/* Colors for "plain" type */
.t-plain.tile-top {
  fill: #fff;
}
.t-plain.tile-left {
  fill: #666;
}
.t-plain.tile-right {
  fill: #999;
}
]]></style>
  <g id="grid">
    <line class="grid-minor" stroke="#eee" x1="-80.0" x2="400.0" y1="24.49489742783178" y2="24.49489742783178"/>
    <line class="grid-major" stroke="#eee" x1="-80.0" x2="400.0" y1="48.98979485566356" y2="48.98979485566356"/>
    <line class="grid-minor" stroke="#eee" x1="-80.0" x2="400.0" y1="73.48469228349535" y2="73.48469228349535"/>
    <line class="grid-major" stroke="#eee" x1="-80.0" x2="400.0" y1="0.0" y2="0.0"/>
    <line class="grid-minor" stroke="#eee" x1="-80.0" x2="400.0" y1="-24.49489742783178" y2="-24.49489742783178"/>
    <line class="grid-major" stroke="#eee" x1="-80.0" x2="400.0" y1="-48.98979485566356" y2="-48.98979485566356"/>
    <line class="grid-minor" stroke="#eee" x1="-80.0" x2="400.0" y1="-73.48469228349535" y2="-73.48469228349535"/>
    <line class="grid-major" stroke="#eee" x1="-80.0" x2="400.0" y1="-97.97958971132712" y2="-97.97958971132712"/>
    <line class="grid-minor" stroke="#eee" x1="-80.0" x2="400.0" y1="-122.4744871391589" y2="-122.4744871391589"/>
    <line class="grid-minor" stroke="#eee" x1="-72.65986323710904" x2="112.65986323710904" y1="-137.97958971132712" y2="88.98979485566356"/>
    <line class="grid-minor" stroke="#eee" x1="152.65986323710905" x2="-32.659863237109036" y1="-137.97958971132712" y2="88.98979485566356"/>
    <line class="grid-major" stroke="#eee" x1="152.65986323710905" x2="-32.659863237109036" y1="88.98979485566356" y2="-137.97958971132712"/>
    <line class="grid-major" stroke="#eee" x1="7.340136762890964" x2="192.65986323710905" y1="88.98979485566356" y2="-137.97958971132712"/>
    <line class="grid-minor" stroke="#eee" x1="192.65986323710905" x2="7.340136762890964" y1="88.98979485566356" y2="-137.97958971132712"/>
    <line class="grid-minor" stroke="#eee" x1="232.65986323710905" x2="47.340136762890964" y1="-137.97958971132712" y2="88.98979485566356"/>
    <line class="grid-major" stroke="#eee" x1="232.65986323710905" x2="47.340136762890964" y1="88.98979485566356" y2="-137.97958971132712"/>
    <line class="grid-major" stroke="#eee" x1="272.65986323710905" x2="87.34013676289096" y1="-137.97958971132712" y2="88.98979485566356"/>
    <line class="grid-minor" stroke="#eee" x1="87.34013676289096" x2="272.65986323710905" y1="-137.97958971132712" y2="88.98979485566356"/>
    <line class="grid-minor" stroke="#eee" x1="312.65986323710905" x2="127.34013676289096" y1="-137.97958971132712" y2="88.98979485566356"/>
    <line class="grid-major" stroke="#eee" x1="127.34013676289096" x2="312.65986323710905" y1="-137.97958971132712" y2="88.98979485566356"/>
    <line class="grid-major" stroke="#eee" x1="167.34013676289095" x2="352.65986323710905" y1="88.98979485566356" y2="-137.97958971132712"/>
    <line class="grid-minor" stroke="#eee" x1="352.65986323710905" x2="167.34013676289095" y1="88.98979485566356" y2="-137.97958971132712"/>
    <line class="grid-minor" stroke="#eee" x1="392.65986323710905" x2="207.34013676289095" y1="-137.97958971132712" y2="88.98979485566356"/>
    <line class="grid-major" stroke="#eee" x1="392.65986323710905" x2="207.34013676289095" y1="88.98979485566356" y2="-137.97958971132712"/>
    <line class="grid-major" stroke="#eee" x1="247.34013676289095" x2="400.0" y1="88.98979485566356" y2="-97.97958971132714"/>
    <line class="grid-minor" stroke="#eee" x1="247.34013676289095" x2="400.0" y1="-137.97958971132712" y2="48.98979485566357"/>
    <line class="grid-minor" stroke="#eee" x1="287.34013676289095" x2="400.0" y1="88.98979485566356" y2="-48.98979485566357"/>
    <line class="grid-major" stroke="#eee" x1="400.0" x2="287.34013676289095" y1="0.0" y2="-137.97958971132712"/>
    <line class="grid-major" stroke="#eee" x1="327.34013676289095" x2="400.0" y1="88.98979485566356" y2="-0.0"/>
    <line class="grid-minor" stroke="#eee" x1="400.0" x2="327.34013676289095" y1="-48.98979485566357" y2="-137.97958971132712"/>
    <line class="grid-minor" stroke="#eee" x1="367.34013676289095" x2="400.0" y1="88.98979485566356" y2="48.98979485566357"/>
    <line class="grid-major" stroke="#eee" x1="367.34013676289095" x2="400.0" y1="-137.97958971132712" y2="-97.97958971132714"/>
    <line class="grid-major" stroke="#eee" x1="72.65986323710904" x2="-80.0" y1="88.98979485566356" y2="-97.97958971132714"/>
    <line class="grid-major" stroke="#eee" x1="112.65986323710904" x2="-72.65986323710904" y1="-137.97958971132712" y2="88.98979485566356"/>
    <line class="grid-minor" stroke="#eee" x1="32.659863237109036" x2="-80.0" y1="88.98979485566356" y2="-48.98979485566357"/>
    <line class="grid-minor" stroke="#eee" x1="-80.0" x2="72.65986323710904" y1="48.98979485566357" y2="-137.97958971132712"/>
    <line class="grid-major" stroke="#eee" x1="-80.0" x2="-7.340136762890964" y1="0.0" y2="88.98979485566356"/>
    <line class="grid-major" stroke="#eee" x1="-80.0" x2="32.659863237109036" y1="-0.0" y2="-137.97958971132712"/>
    <line class="grid-minor" stroke="#eee" x1="-80.0" x2="-47.340136762890964" y1="48.98979485566357" y2="88.98979485566356"/>
    <line class="grid-minor" stroke="#eee" x1="-7.340136762890964" x2="-80.0" y1="-137.97958971132712" y2="-48.98979485566357"/>
    <line class="grid-major" stroke="#eee" x1="-47.340136762890964" x2="-80.0" y1="-137.97958971132712" y2="-97.97958971132714"/>
  </g>
  <g id="l-tiny-tiles">
    <g id="tile-2-4">
      <g>
        <polygon class="tile r-home t-plain tile-top" points="-19.999999999999996,-113.21562333246986 1.9637094279021894,-118.261849719584 15.538028373372246,-105.0506575231926 1.9637094279021894,-91.8394653268012 -19.999999999999993,-96.88569171391534" stroke="black"/>
        <polygon class="tile r-home t-plain tile-left" points="15.538028373372246,-105.0506575231926 1.9637094279021894,-91.8394653268012 1.9637094279021894,-84.76839751493573 15.538028373372246,-97.97958971132712" stroke="black"/>
        <polygon class="tile r-home t-plain tile-right" points="1.9637094279021894,-91.8394653268012 -19.999999999999993,-96.88569171391534 -19.999999999999993,-89.81462390204986 1.9637094279021894,-84.76839751493573" stroke="black"/>
      </g>
    </g>
    <g id="tile-1-3">
      <g>
        <polygon class="tile r-home t-plain tile-top" points="-40.4,-72.22749496989802 -20.0,-63.89922984443521 0.3999999999999986,-72.22749496989802 0.3999999999999986,-88.88402522082363 -20.0,-97.21229034628644 -40.4,-88.88402522082363" stroke="black"/>
        <polygon class="tile r-home t-plain tile-left" points="-40.4,-72.22749496989802 -20.0,-63.89922984443521 -20.0,-56.828162032569736 -40.4,-65.15642715803254" stroke="black"/>
        <polygon class="tile r-home t-plain tile-right" points="-20.0,-63.89922984443521 0.3999999999999986,-72.22749496989802 0.3999999999999986,-65.15642715803254 -20.0,-56.828162032569736" stroke="black"/>
      </g>
    </g>
    <g id="tile-3-3">
      <g>
        <polygon class="tile r-home t-plain tile-top" points="39.6,-72.22749496989802 60.0,-63.89922984443521 80.4,-72.22749496989802 80.4,-88.88402522082363 60.0,-97.21229034628644 39.6,-88.88402522082363" stroke="black"/>
        <polygon class="tile r-home t-plain tile-left" points="39.6,-72.22749496989802 60.0,-63.89922984443521 60.0,-56.828162032569736 39.6,-65.15642715803254" stroke="black"/>
        <polygon class="tile r-home t-plain tile-right" points="60.0,-63.89922984443521 80.4,-72.22749496989802 80.4,-65.15642715803254 60.0,-56.828162032569736" stroke="black"/>
      </g>
    </g>
    <g id="tile-5-3">
      <g>
        <polygon class="tile r-home t-plain tile-top" points="119.6,-72.22749496989802 140.0,-63.89922984443521 160.4,-72.22749496989802 160.4,-88.88402522082363 140.0,-97.21229034628644 119.6,-88.88402522082363" stroke="black"/>
        <polygon class="tile r-home t-plain tile-left" points="119.6,-72.22749496989802 140.0,-63.89922984443521 140.0,-56.828162032569736 119.6,-65.15642715803254" stroke="black"/>
        <polygon class="tile r-home t-plain tile-right" points="140.0,-63.89922984443521 160.4,-72.22749496989802 160.4,-65.15642715803254 140.0,-56.828162032569736" stroke="black"/>
      </g>
    </g>
    <g id="tile-7-3">
      <g>
        <polygon class="tile r-home t-plain tile-top" points="199.6,-72.22749496989802 220.0,-63.89922984443521 240.4,-72.22749496989802 240.4,-88.88402522082363 220.0,-97.21229034628644 199.6,-88.88402522082363" stroke="black"/>
        <polygon class="tile r-home t-plain tile-left" points="199.6,-72.22749496989802 220.0,-63.89922984443521 220.0,-56.828162032569736 199.6,-65.15642715803254" stroke="black"/>
        <polygon class="tile r-home t-plain tile-right" points="220.0,-63.89922984443521 240.4,-72.22749496989802 240.4,-65.15642715803254 220.0,-56.828162032569736" stroke="black"/>
      </g>
    </g>
    <g id="tile-9-3">
      <g>
        <polygon class="tile r-home t-plain tile-top" points="279.6,-72.22749496989802 300.0,-63.89922984443521 320.4,-72.22749496989802 320.4,-88.88402522082363 300.0,-97.21229034628644 279.6,-88.88402522082363" stroke="black"/>
        <polygon class="tile r-home t-plain tile-left" points="279.6,-72.22749496989802 300.0,-63.89922984443521 300.0,-56.828162032569736 279.6,-65.15642715803254" stroke="black"/>
        <polygon class="tile r-home t-plain tile-right" points="300.0,-63.89922984443521 320.4,-72.22749496989802 320.4,-65.15642715803254 300.0,-56.828162032569736" stroke="black"/>
      </g>
    </g>
    <g id="tile-0-2">
      <g>
        <polygon class="tile r-home t-plain tile-top" points="-20.0,-64.22582847680629 -24.801514826452145,-48.25274504397008 -47.76901418668612,-46.545802386616714 -57.16219460145004,-61.463937240361474 -40.00000000000001,-72.39079428608356" stroke="black"/>
        <polygon class="tile r-home t-plain tile-left" points="-20.0,-64.22582847680629 -24.801514826452145,-48.25274504397008 -24.801514826452145,-41.181677232104605 -20.0,-57.15476066494082" stroke="black"/>
        <polygon class="tile r-home t-plain tile-right tile-mid" points="-24.801514826452145,-48.25274504397008 -47.76901418668612,-46.545802386616714 -47.76901418668612,-39.47473457475124 -24.801514826452145,-41.181677232104605" stroke="black"/>
        <polygon class="tile r-home t-plain tile-right" points="-47.76901418668612,-46.545802386616714 -57.16219460145004,-61.463937240361474 -57.16219460145004,-54.392869428496 -47.76901418668612,-39.47473457475124" stroke="black"/>
      </g>
    </g>
    <g id="tile-1-2">
      <g>
        <polygon class="tile r-home t-plain tile-top" points="-20.4,-47.73259754206623 0.0,-39.404332416603424 20.4,-47.73259754206623 20.4,-64.38912779299184 0.0,-72.71739291845465 -20.4,-64.38912779299184" stroke="black"/>
        <polygon class="tile r-home t-plain tile-left" points="-20.4,-47.73259754206623 0.0,-39.404332416603424 0.0,-32.33326460473795 -20.4,-40.661529730200755" stroke="black"/>
        <polygon class="tile r-home t-plain tile-right" points="0.0,-39.404332416603424 20.4,-47.73259754206623 20.4,-40.661529730200755 0.0,-32.33326460473795" stroke="black"/>
      </g>
    </g>
    <g id="tile-2-2">
      <g>
        <polygon class="tile r-home t-plain tile-top" points="60.0,-47.895896858251774 38.03629057209781,-42.849670471137635 24.461971626627754,-56.06086266752904 38.03629057209781,-69.27205486392043 59.99999999999999,-64.2258284768063" stroke="black"/>
        <polygon class="tile r-home t-plain tile-left" points="60.0,-47.895896858251774 38.03629057209781,-42.849670471137635 38.03629057209781,-35.77860265927216 60.0,-40.8248290463863" stroke="black"/>
        <polygon class="tile r-home t-plain tile-right" points="38.03629057209781,-42.849670471137635 24.461971626627754,-56.06086266752904 24.461971626627754,-48.98979485566356 38.03629057209781,-35.77860265927216" stroke="black"/>
      </g>
    </g>
    <g id="tile-3-2">
      <g>
        <polygon class="tile r-home t-plain tile-top" points="59.6,-47.73259754206623 80.0,-39.404332416603424 100.4,-47.73259754206623 100.4,-64.38912779299184 80.0,-72.71739291845465 59.6,-64.38912779299184" stroke="black"/>
        <polygon class="tile r-home t-plain tile-left" points="59.6,-47.73259754206623 80.0,-39.404332416603424 80.0,-32.33326460473795 59.6,-40.661529730200755" stroke="black"/>
        <polygon class="tile r-home t-plain tile-right" points="80.0,-39.404332416603424 100.4,-47.73259754206623 100.4,-40.661529730200755 80.0,-32.33326460473795" stroke="black"/>
      </g>
    </g>
    <g id="tile-4-2">
      <g>
        <polygon class="tile r-home t-plain tile-top" points="140.0,-47.895896858251774 118.03629057209781,-42.849670471137635 104.46197162662776,-56.06086266752904 118.03629057209781,-69.27205486392043 140.0,-64.2258284768063" stroke="black"/>
        <polygon class="tile r-home t-plain tile-left" points="140.0,-47.895896858251774 118.03629057209781,-42.849670471137635 118.03629057209781,-35.77860265927216 140.0,-40.8248290463863" stroke="black"/>
        <polygon class="tile r-home t-plain tile-right" points="118.03629057209781,-42.849670471137635 104.46197162662776,-56.06086266752904 104.46197162662776,-48.98979485566356 118.03629057209781,-35.77860265927216" stroke="black"/>
      </g>
    </g>
    <g id="tile-5-2">
      <g>
        <polygon class="tile r-home t-plain tile-top" points="139.6,-47.73259754206623 160.0,-39.404332416603424 180.4,-47.73259754206623 180.4,-64.38912779299184 160.0,-72.71739291845465 139.6,-64.38912779299184" stroke="black"/>
        <polygon class="tile r-home t-plain tile-left" points="139.6,-47.73259754206623 160.0,-39.404332416603424 160.0,-32.33326460473795 139.6,-40.661529730200755" stroke="black"/>
        <polygon class="tile r-home t-plain tile-right" points="160.0,-39.404332416603424 180.4,-47.73259754206623 180.4,-40.661529730200755 160.0,-32.33326460473795" stroke="black"/>
      </g>
    </g>
    <g id="tile-6-2">
      <g>
        <polygon class="tile r-home t-plain tile-top" points="220.0,-47.895896858251774 198.0362905720978,-42.849670471137635 184.46197162662776,-56.06086266752904 198.0362905720978,-69.27205486392043 220.0,-64.2258284768063" stroke="black"/>
        <polygon class="tile r-home t-plain tile-left" points="220.0,-47.895896858251774 198.0362905720978,-42.849670471137635 198.0362905720978,-35.77860265927216 220.0,-40.8248290463863" stroke="black"/>
        <polygon class="tile r-home t-plain tile-right" points="198.0362905720978,-42.849670471137635 184.46197162662776,-56.06086266752904 184.46197162662776,-48.98979485566356 198.0362905720978,-35.77860265927216" stroke="black"/>
      </g>
    </g>
    <g id="tile-7-2">
      <g>
        <polygon class="tile r-home t-plain tile-top" points="219.6,-47.73259754206623 240.0,-39.404332416603424 260.4,-47.73259754206623 260.4,-64.38912779299184 240.0,-72.71739291845465 219.6,-64.38912779299184" stroke="black"/>
        <polygon class="tile r-home t-plain tile-left" points="219.6,-47.73259754206623 240.0,-39.404332416603424 240.0,-32.33326460473795 219.6,-40.661529730200755" stroke="black"/>
        <polygon class="tile r-home t-plain tile-right" points="240.0,-39.404332416603424 260.4,-47.73259754206623 260.4,-40.661529730200755 240.0,-32.33326460473795" stroke="black"/>
      </g>
    </g>
    <g id="tile-8-2">
      <g>
        <polygon class="tile r-home t-plain tile-top" points="300.0,-47.895896858251774 278.0362905720978,-42.849670471137635 264.46197162662776,-56.06086266752904 278.0362905720978,-69.27205486392043 300.0,-64.2258284768063" stroke="black"/>
        <polygon class="tile r-home t-plain tile-left" points="300.0,-47.895896858251774 278.0362905720978,-42.849670471137635 278.0362905720978,-35.77860265927216 300.0,-40.8248290463863" stroke="black"/>
        <polygon class="tile r-home t-plain tile-right" points="278.0362905720978,-42.849670471137635 264.46197162662776,-56.06086266752904 264.46197162662776,-48.98979485566356 278.0362905720978,-35.77860265927216" stroke="black"/>
      </g>
    </g>
    <g id="tile-9-2">
      <g>
        <polygon class="tile r-home t-plain tile-top" points="299.6,-47.73259754206623 320.0,-39.404332416603424 340.4,-47.73259754206623 340.4,-64.38912779299184 320.0,-72.71739291845465 299.6,-64.38912779299184" stroke="black"/>
        <polygon class="tile r-home t-plain tile-left" points="299.6,-47.73259754206623 320.0,-39.404332416603424 320.0,-32.33326460473795 299.6,-40.661529730200755" stroke="black"/>
        <polygon class="tile r-home t-plain tile-right" points="320.0,-39.404332416603424 340.4,-47.73259754206623 340.4,-40.661529730200755 320.0,-32.33326460473795" stroke="black"/>
      </g>
    </g>
    <g id="tile-0-1">
      <g>
        <polygon class="tile r-home t-plain tile-top" points="-40.4,-23.23770011423445 -20.0,-14.909434988771643 0.3999999999999986,-23.23770011423445 0.3999999999999986,-39.89423036516006 -20.0,-48.22249549062287 -40.4,-39.89423036516006" stroke="black"/>
        <polygon class="tile r-home t-plain tile-left" points="-40.4,-23.23770011423445 -20.0,-14.909434988771643 -20.0,-7.838367176906168 -40.4,-16.166632302368974" stroke="black"/>
        <polygon class="tile r-home t-plain tile-right" points="-20.0,-14.909434988771643 0.3999999999999986,-23.23770011423445 0.3999999999999986,-16.166632302368974 -20.0,-7.838367176906168" stroke="black"/>
      </g>
    </g>
    <g id="tile-1-1">
      <g>
        <polygon class="tile r-home t-plain tile-top" points="-0.3999999999999986,-23.23770011423445 20.0,-14.909434988771643 40.4,-23.23770011423445 40.4,-39.89423036516006 20.0,-48.22249549062287 -0.3999999999999986,-39.89423036516006" stroke="black"/>
        <polygon class="tile r-home t-plain tile-left" points="-0.3999999999999986,-23.23770011423445 20.0,-14.909434988771643 20.0,-7.838367176906168 -0.3999999999999986,-16.166632302368974" stroke="black"/>
        <polygon class="tile r-home t-plain tile-right" points="20.0,-14.909434988771643 40.4,-23.23770011423445 40.4,-16.166632302368974 20.0,-7.838367176906168" stroke="black"/>
      </g>
    </g>
    <g id="tile-2-1">
      <g>
        <polygon class="tile r-home t-plain tile-top" points="39.6,-23.23770011423445 60.0,-14.909434988771643 80.4,-23.23770011423445 80.4,-39.89423036516006 60.0,-48.22249549062287 39.6,-39.89423036516006" stroke="black"/>
        <polygon class="tile r-home t-plain tile-left" points="39.6,-23.23770011423445 60.0,-14.909434988771643 60.0,-7.838367176906168 39.6,-16.166632302368974" stroke="black"/>
        <polygon class="tile r-home t-plain tile-right" points="60.0,-14.909434988771643 80.4,-23.23770011423445 80.4,-16.166632302368974 60.0,-7.838367176906168" stroke="black"/>
      </g>
    </g>
    <g id="tile-3-1">
      <g>
        <polygon class="tile r-home t-plain tile-top" points="79.6,-23.23770011423445 100.0,-14.909434988771643 120.4,-23.23770011423445 120.4,-39.89423036516006 100.0,-48.22249549062287 79.6,-39.89423036516006" stroke="black"/>
        <polygon class="tile r-home t-plain tile-left" points="79.6,-23.23770011423445 100.0,-14.909434988771643 100.0,-7.838367176906168 79.6,-16.166632302368974" stroke="black"/>
        <polygon class="tile r-home t-plain tile-right" points="100.0,-14.909434988771643 120.4,-23.23770011423445 120.4,-16.166632302368974 100.0,-7.838367176906168" stroke="black"/>
      </g>
    </g>
    <g id="tile-4-1">
      <g>
        <polygon class="tile r-home t-plain tile-top" points="119.6,-23.23770011423445 140.0,-14.909434988771643 160.4,-23.23770011423445 160.4,-39.89423036516006 140.0,-48.22249549062287 119.6,-39.89423036516006" stroke="black"/>
        <polygon class="tile r-home t-plain tile-left" points="119.6,-23.23770011423445 140.0,-14.909434988771643 140.0,-7.838367176906168 119.6,-16.166632302368974" stroke="black"/>
        <polygon class="tile r-home t-plain tile-right" points="140.0,-14.909434988771643 160.4,-23.23770011423445 160.4,-16.166632302368974 140.0,-7.838367176906168" stroke="black"/>
      </g>
    </g>
    <g id="tile-5-1">
      <g>
        <polygon class="tile r-home t-plain tile-top" points="159.6,-23.23770011423445 180.0,-14.909434988771643 200.4,-23.23770011423445 200.4,-39.89423036516006 180.0,-48.22249549062287 159.6,-39.89423036516006" stroke="black"/>
        <polygon class="tile r-home t-plain tile-left" points="159.6,-23.23770011423445 180.0,-14.909434988771643 180.0,-7.838367176906168 159.6,-16.166632302368974" stroke="black"/>
        <polygon class="tile r-home t-plain tile-right" points="180.0,-14.909434988771643 200.4,-23.23770011423445 200.4,-16.166632302368974 180.0,-7.838367176906168" stroke="black"/>
      </g>
    </g>
    <g id="tile-6-1">
      <g>
        <polygon class="tile r-home t-plain tile-top" points="199.6,-23.23770011423445 220.0,-14.909434988771643 240.4,-23.23770011423445 240.4,-39.89423036516006 220.0,-48.22249549062287 199.6,-39.89423036516006" stroke="black"/>
        <polygon class="tile r-home t-plain tile-left" points="199.6,-23.23770011423445 220.0,-14.909434988771643 220.0,-7.838367176906168 199.6,-16.166632302368974" stroke="black"/>
        <polygon class="tile r-home t-plain tile-right" points="220.0,-14.909434988771643 240.4,-23.23770011423445 240.4,-16.166632302368974 220.0,-7.838367176906168" stroke="black"/>
      </g>
    </g>
    <g id="tile-7-1">
      <g>
        <polygon class="tile r-home t-plain tile-top" points="239.6,-23.23770011423445 260.0,-14.909434988771643 280.4,-23.23770011423445 280.4,-39.89423036516006 260.0,-48.22249549062287 239.6,-39.89423036516006" stroke="black"/>
        <polygon class="tile r-home t-plain tile-left" points="239.6,-23.23770011423445 260.0,-14.909434988771643 260.0,-7.838367176906168 239.6,-16.166632302368974" stroke="black"/>
        <polygon class="tile r-home t-plain tile-right" points="260.0,-14.909434988771643 280.4,-23.23770011423445 280.4,-16.166632302368974 260.0,-7.838367176906168" stroke="black"/>
      </g>
    </g>
    <g id="tile-8-1">
      <g>
        <polygon class="tile r-home t-plain tile-top" points="279.6,-23.23770011423445 300.0,-14.909434988771643 320.4,-23.23770011423445 320.4,-39.89423036516006 300.0,-48.22249549062287 279.6,-39.89423036516006" stroke="black"/>
        <polygon class="tile r-home t-plain tile-left" points="279.6,-23.23770011423445 300.0,-14.909434988771643 300.0,-7.838367176906168 279.6,-16.166632302368974" stroke="black"/>
        <polygon class="tile r-home t-plain tile-right" points="300.0,-14.909434988771643 320.4,-23.23770011423445 320.4,-16.166632302368974 300.0,-7.838367176906168" stroke="black"/>
      </g>
    </g>
    <g id="tile-9-1">
      <g>
        <polygon class="tile r-home t-plain tile-top" points="319.6,-23.23770011423445 340.0,-14.909434988771643 360.4,-23.23770011423445 360.4,-39.89423036516006 340.0,-48.22249549062287 319.6,-39.89423036516006" stroke="black"/>
        <polygon class="tile r-home t-plain tile-left" points="319.6,-23.23770011423445 340.0,-14.909434988771643 340.0,-7.838367176906168 319.6,-16.166632302368974" stroke="black"/>
        <polygon class="tile r-home t-plain tile-right" points="340.0,-14.909434988771643 360.4,-23.23770011423445 360.4,-16.166632302368974 340.0,-7.838367176906168" stroke="black"/>
      </g>
    </g>
    <g id="tile-0-0">
      <g>
        <polygon class="tile r-home t-plain tile-top" points="20.0,-15.236033621142731 15.198485173547855,0.7370498116934838 -7.769014186686123,2.4439924690468517 -17.162194601450043,-12.474142384697915 -5.329070518200751e-15,-23.400999430419997" stroke="black"/>
        <polygon class="tile r-home t-plain tile-left" points="20.0,-15.236033621142731 15.198485173547855,0.7370498116934838 15.198485173547855,7.808117623558958 20.0,-8.164965809277257" stroke="black"/>
        <polygon class="tile r-home t-plain tile-right tile-mid" points="15.198485173547855,0.7370498116934838 -7.769014186686123,2.4439924690468517 -7.769014186686123,9.515060280912326 15.198485173547855,7.808117623558958" stroke="black"/>
        <polygon class="tile r-home t-plain tile-right" points="-7.769014186686123,2.4439924690468517 -17.162194601450043,-12.474142384697915 -17.162194601450043,-5.40307457283244 -7.769014186686123,9.515060280912326" stroke="black"/>
      </g>
    </g>
    <g id="tile-1-0">
      <g>
        <polygon class="tile r-home t-plain tile-top" points="19.6,1.2571973135973318 40.0,9.585462439060137 60.4,1.2571973135973318 60.4,-15.399332937328282 40.0,-23.72759806279109 19.6,-15.399332937328282" stroke="black"/>
        <polygon class="tile r-home t-plain tile-left" points="19.6,1.2571973135973318 40.0,9.585462439060137 40.0,16.656530250925613 19.6,8.328265125462806" stroke="black"/>
        <polygon class="tile r-home t-plain tile-right" points="40.0,9.585462439060137 60.4,1.2571973135973318 60.4,8.328265125462806 40.0,16.656530250925613" stroke="black"/>
      </g>
    </g>
    <g id="tile-2-0">
      <g>
        <polygon class="tile r-home t-plain tile-top" points="100.0,1.0938979974117862 78.03629057209781,6.140124384525927 64.46197162662776,-7.071067811865473 78.03629057209781,-20.282260008256873 100.0,-15.236033621142738" stroke="black"/>
        <polygon class="tile r-home t-plain tile-left" points="100.0,1.0938979974117862 78.03629057209781,6.140124384525927 78.03629057209781,13.211192196391401 100.0,8.16496580927726" stroke="black"/>
        <polygon class="tile r-home t-plain tile-right" points="78.03629057209781,6.140124384525927 64.46197162662776,-7.071067811865473 64.46197162662776,1.7011653838676995e-15 78.03629057209781,13.211192196391401" stroke="black"/>
      </g>
    </g>
    <g id="tile-3-0">
      <g>
        <polygon class="tile r-home t-plain tile-top" points="99.6,1.2571973135973318 120.0,9.585462439060137 140.4,1.2571973135973318 140.4,-15.399332937328282 120.0,-23.72759806279109 99.6,-15.399332937328282" stroke="black"/>
        <polygon class="tile r-home t-plain tile-left" points="99.6,1.2571973135973318 120.0,9.585462439060137 120.0,16.656530250925613 99.6,8.328265125462806" stroke="black"/>
        <polygon class="tile r-home t-plain tile-right" points="120.0,9.585462439060137 140.4,1.2571973135973318 140.4,8.328265125462806 120.0,16.656530250925613" stroke="black"/>
      </g>
    </g>
    <g id="tile-4-0">
      <g>
        <polygon class="tile r-home t-plain tile-top" points="180.0,1.0938979974117862 158.0362905720978,6.140124384525927 144.46197162662776,-7.071067811865473 158.0362905720978,-20.282260008256873 180.0,-15.236033621142738" stroke="black"/>
        <polygon class="tile r-home t-plain tile-left" points="180.0,1.0938979974117862 158.0362905720978,6.140124384525927 158.0362905720978,13.211192196391401 180.0,8.16496580927726" stroke="black"/>
        <polygon class="tile r-home t-plain tile-right" points="158.0362905720978,6.140124384525927 144.46197162662776,-7.071067811865473 144.46197162662776,1.7011653838676995e-15 158.0362905720978,13.211192196391401" stroke="black"/>
      </g>
    </g>
    <g id="tile-5-0">
      <g>
        <polygon class="tile r-home t-plain tile-top" points="179.6,1.2571973135973318 200.0,9.585462439060137 220.4,1.2571973135973318 220.4,-15.399332937328282 200.0,-23.72759806279109 179.6,-15.399332937328282" stroke="black"/>
        <polygon class="tile r-home t-plain tile-left" points="179.6,1.2571973135973318 200.0,9.585462439060137 200.0,16.656530250925613 179.6,8.328265125462806" stroke="black"/>
        <polygon class="tile r-home t-plain tile-right" points="200.0,9.585462439060137 220.4,1.2571973135973318 220.4,8.328265125462806 200.0,16.656530250925613" stroke="black"/>
      </g>
    </g>
    <g id="tile-6-0">
      <g>
        <polygon class="tile r-home t-plain tile-top" points="260.0,1.0938979974117862 238.0362905720978,6.140124384525927 224.46197162662776,-7.071067811865473 238.0362905720978,-20.282260008256873 260.0,-15.236033621142738" stroke="black"/>
        <polygon class="tile r-home t-plain tile-left" points="260.0,1.0938979974117862 238.0362905720978,6.140124384525927 238.0362905720978,13.211192196391401 260.0,8.16496580927726" stroke="black"/>
        <polygon class="tile r-home t-plain tile-right" points="238.0362905720978,6.140124384525927 224.46197162662776,-7.071067811865473 224.46197162662776,1.7011653838676995e-15 238.0362905720978,13.211192196391401" stroke="black"/>
      </g>
    </g>
    <g id="tile-7-0">
      <g>
        <polygon class="tile r-home t-plain tile-top" points="259.6,1.2571973135973318 280.0,9.585462439060137 300.4,1.2571973135973318 300.4,-15.399332937328282 280.0,-23.72759806279109 259.6,-15.399332937328282" stroke="black"/>
        <polygon class="tile r-home t-plain tile-left" points="259.6,1.2571973135973318 280.0,9.585462439060137 280.0,16.656530250925613 259.6,8.328265125462806" stroke="black"/>
        <polygon class="tile r-home t-plain tile-right" points="280.0,9.585462439060137 300.4,1.2571973135973318 300.4,8.328265125462806 280.0,16.656530250925613" stroke="black"/>
      </g>
    </g>
    <g id="tile-8-0">
      <g>
        <polygon class="tile r-home t-plain tile-top" points="340.0,1.0938979974117862 318.0362905720978,6.140124384525927 304.46197162662776,-7.071067811865473 318.0362905720978,-20.282260008256873 340.0,-15.236033621142738" stroke="black"/>
        <polygon class="tile r-home t-plain tile-left" points="340.0,1.0938979974117862 318.0362905720978,6.140124384525927 318.0362905720978,13.211192196391401 340.0,8.16496580927726" stroke="black"/>
        <polygon class="tile r-home t-plain tile-right" points="318.0362905720978,6.140124384525927 304.46197162662776,-7.071067811865473 304.46197162662776,1.7011653838676995e-15 318.0362905720978,13.211192196391401" stroke="black"/>
      </g>
    </g>
    <g id="tile-9-0">
      <g>
        <polygon class="tile r-home t-plain tile-top" points="339.6,1.2571973135973318 360.0,9.585462439060137 380.4,1.2571973135973318 380.4,-15.399332937328282 360.0,-23.72759806279109 339.6,-15.399332937328282" stroke="black"/>
        <polygon class="tile r-home t-plain tile-left" points="339.6,1.2571973135973318 360.0,9.585462439060137 360.0,16.656530250925613 339.6,8.328265125462806" stroke="black"/>
        <polygon class="tile r-home t-plain tile-right" points="360.0,9.585462439060137 380.4,1.2571973135973318 380.4,8.328265125462806 360.0,16.656530250925613" stroke="black"/>
      </g>
    </g>
    <g id="tile-0--1">
      <g>
        <polygon class="tile r-home t-plain tile-top" points="-0.3999999999999986,25.75209474142911 20.0,34.08035986689192 40.4,25.75209474142911 40.4,9.095564490503499 20.0,0.7672993650406932 -0.3999999999999986,9.095564490503499" stroke="black"/>
        <polygon class="tile r-home t-plain tile-left" points="-0.3999999999999986,25.75209474142911 20.0,34.08035986689192 20.0,41.15142767875739 -0.3999999999999986,32.82316255329459" stroke="black"/>
        <polygon class="tile r-home t-plain tile-right" points="20.0,34.08035986689192 40.4,25.75209474142911 40.4,32.82316255329459 20.0,41.15142767875739" stroke="black"/>
      </g>
    </g>
    <g id="tile-2--1">
      <g>
        <polygon class="tile r-home t-plain tile-top" points="79.6,25.75209474142911 100.0,34.08035986689192 120.4,25.75209474142911 120.4,9.095564490503499 100.0,0.7672993650406932 79.6,9.095564490503499" stroke="black"/>
        <polygon class="tile r-home t-plain tile-left" points="79.6,25.75209474142911 100.0,34.08035986689192 100.0,41.15142767875739 79.6,32.82316255329459" stroke="black"/>
        <polygon class="tile r-home t-plain tile-right" points="100.0,34.08035986689192 120.4,25.75209474142911 120.4,32.82316255329459 100.0,41.15142767875739" stroke="black"/>
      </g>
    </g>
    <g id="tile-4--1">
      <g>
        <polygon class="tile r-home t-plain tile-top" points="159.6,25.75209474142911 180.0,34.08035986689192 200.4,25.75209474142911 200.4,9.095564490503499 180.0,0.7672993650406932 159.6,9.095564490503499" stroke="black"/>
        <polygon class="tile r-home t-plain tile-left" points="159.6,25.75209474142911 180.0,34.08035986689192 180.0,41.15142767875739 159.6,32.82316255329459" stroke="black"/>
        <polygon class="tile r-home t-plain tile-right" points="180.0,34.08035986689192 200.4,25.75209474142911 200.4,32.82316255329459 180.0,41.15142767875739" stroke="black"/>
      </g>
    </g>
    <g id="tile-6--1">
      <g>
        <polygon class="tile r-home t-plain tile-top" points="239.6,25.75209474142911 260.0,34.08035986689192 280.4,25.75209474142911 280.4,9.095564490503499 260.0,0.7672993650406932 239.6,9.095564490503499" stroke="black"/>
        <polygon class="tile r-home t-plain tile-left" points="239.6,25.75209474142911 260.0,34.08035986689192 260.0,41.15142767875739 239.6,32.82316255329459" stroke="black"/>
        <polygon class="tile r-home t-plain tile-right" points="260.0,34.08035986689192 280.4,25.75209474142911 280.4,32.82316255329459 260.0,41.15142767875739" stroke="black"/>
      </g>
    </g>
    <g id="tile-8--1">
      <g>
        <polygon class="tile r-home t-plain tile-top" points="319.6,25.75209474142911 340.0,34.08035986689192 360.4,25.75209474142911 360.4,9.095564490503499 340.0,0.7672993650406932 319.6,9.095564490503499" stroke="black"/>
        <polygon class="tile r-home t-plain tile-left" points="319.6,25.75209474142911 340.0,34.08035986689192 340.0,41.15142767875739 319.6,32.82316255329459" stroke="black"/>
        <polygon class="tile r-home t-plain tile-right" points="340.0,34.08035986689192 360.4,25.75209474142911 360.4,32.82316255329459 340.0,41.15142767875739" stroke="black"/>
      </g>
    </g>
    <g id="tile-0--2">
      <g>
        <polygon class="tile r-home t-plain tile-top" points="40.00000000000001,25.588795425243568 57.16219460145005,36.51565247096565 47.76901418668612,51.43378732471041 24.80151482645215,49.72684466735704 20.0,33.75376123452083" stroke="black"/>
        <polygon class="tile r-home t-plain tile-left" points="57.16219460145005,36.51565247096565 47.76901418668612,51.43378732471041 47.76901418668612,58.504855136575884 57.16219460145005,43.58672028283112" stroke="black"/>
        <polygon class="tile r-home t-plain tile-left tile-mid" points="47.76901418668612,51.43378732471041 24.80151482645215,49.72684466735704 24.80151482645215,56.79791247922252 47.76901418668612,58.504855136575884" stroke="black"/>
        <polygon class="tile r-home t-plain tile-right" points="24.80151482645215,49.72684466735704 20.0,33.75376123452083 20.0,40.824829046386306 24.80151482645215,56.79791247922252" stroke="black"/>
      </g>
    </g>
  </g>
</svg>
